<svg width="156" height="188" fill="none" xmlns="http://www.w3.org/2000/svg"><path d="M141.25 83.63a14.75 14.75 0 100-29.5 14.75 14.75 0 000 29.5zM89.11 139.54l-7.07 17.88-22.82 14.92a7.16 7.16 0 107.65 12.08c3.76-2.37 22.35-14.08 25.5-15.88 3.5-2 4.12-5.12 4.12-5.12l4.87-16-5.75-2.63c-5.75-2.62-6.5-5.25-6.5-5.25z" fill="#fff"/><path d="M139.32 141.46s-1.16-3.83-4.58-5.17c-3.42-1.33-18.09-7.75-18.09-7.75l15.42-25.58s3.84-9-.33-13.42c-4.17-4.41-13.75-9.75-13.75-9.75h-7.52l15.8-26.8a12.03 12.03 0 00-4.25-16.43L72.63 7.45a12.03 12.03 0 00-16.43 4.24L9.14 91.52a12.04 12.04 0 004.25 16.43l49.39 29.11a12.04 12.04 0 0016.43-4.24l22.93-38.9h8.1l-14.75 26.2s-5.13 9.22-.33 14.26c4.2 4.41 12.66 6.91 12.66 6.91l17.25 6.5 5.1 31.3h.01a7.16 7.16 0 0014.2-1.7l.04-.01-5.1-35.92zM17.96 100.2a3.04 3.04 0 01-1.06-4.11l47.06-79.83a3.04 3.04 0 014.1-1.06L79.58 22l-50.1 84.99-11.52-6.8zm53.5 28.05a3.04 3.04 0 01-4.11 1.06l-30.12-17.75 50.11-85 30.11 17.76c1.4.82 1.89 2.7 1.06 4.1L100.03 79.8h-8.78L71.32 94.22c-.44.25-.85.56-1.23.9l-.03.02a7.17 7.17 0 008.96 11.14l.08-.06c.18-.13.35-.27.52-.42l9.66-7.78-17.82 30.23z" fill="#fff"/><path d="M49.22 5.94L2.16 85.77A12.04 12.04 0 006.4 102.2l49.4 29.12a12.04 12.04 0 0016.43-4.24l47.05-79.83a12.03 12.03 0 00-4.24-16.44L65.65 1.7a12.04 12.04 0 00-16.43 4.24zm-39.3 84.4l47.05-79.83a3.04 3.04 0 014.11-1.06l11.52 6.8-50.1 85-11.53-6.8a3.04 3.04 0 01-1.06-4.1zm101.61-47.66L64.47 122.5a3.04 3.04 0 01-4.1 1.07L30.24 105.8l50.1-85 30.12 17.76c1.4.82 1.89 2.7 1.06 4.1z" fill="#F0C42E"/><path d="M135.25 77.83a14.75 14.75 0 100-29.5 14.75 14.75 0 000 29.5zM81.88 133.75l-7.08 17.88-22.82 14.91a7.16 7.16 0 107.65 12.09c3.76-2.37 22.35-14.09 25.5-15.88 3.5-2 4.12-5.13 4.12-5.13l4.88-16-5.75-2.62c-5.75-2.63-6.5-5.25-6.5-5.25zM132.08 135.67s-1.16-3.84-4.58-5.17-18.08-7.75-18.08-7.75l15.41-25.58s3.84-9-.33-13.42S110.75 74 110.75 74H84L64.08 88.43a7.2 7.2 0 00-1.23.89l-.03.02a7.17 7.17 0 008.96 11.14l.08-.05.52-.43 14.75-11.88H103l-14.75 26.21s-5.13 9.22-.33 14.25c4.2 4.42 12.66 6.92 12.66 6.92l17.25 6.5 5.1 31.29h.01a7.16 7.16 0 0014.2-1.7h.04l-5.1-35.92z" fill="#3A3A3A"/></svg>