<svg width="10" height="10" fill="none" xmlns="http://www.w3.org/2000/svg"><g clip-path="url(#clip0)" fill="#FFC600"><path d="M9.86 2.52a.36.36 0 00-.27-.13H7.66v1.03c0 .47-.4.85-.9.85s-.9-.38-.9-.85V2.39h-1.8v1.03c0 .47-.41.85-.9.85-.5 0-.9-.38-.9-.85V2.39H.31c-.1 0-.2.05-.27.13a.4.4 0 00-.1.3l.66 5.96c0 .68.53 1.22 1.17 1.22h6.35c.64 0 1.16-.54 1.17-1.22l.65-5.96a.4.4 0 00-.09-.3z"/><path d="M3.15 3.76c.2 0 .36-.15.36-.34V1.54c0-.53.56-.86 1.08-.86h.9c.55 0 .9.34.9.86v1.88c0 .19.17.34.37.34.2 0 .36-.15.36-.34V1.54C7.12.64 6.44 0 5.5 0h-.9c-1 0-1.8.69-1.8 1.54v1.88c0 .19.15.34.35.34z"/></g><defs><clipPath id="clip0"><path fill="#fff" d="M0 0h10v10H0z"/></clipPath></defs></svg>