<svg width="27" height="34" fill="none" xmlns="http://www.w3.org/2000/svg"><g clip-path="url(#clip0)"><path d="M13.62.02L13.47 0 0 1.4V26l13.47 8 13.43-7.97.05-.02V1.4L13.62 0zm11.4 12.07L13.49 5.33v-.1l-.08.05-.1-.06v.1L1.94 12.1V3.14l11.54-1.21 11.55 1.2v8.96zM13.4 6.78l11.52 6.7-4.48 2.63-7.09-4.21-.01 1.4 5.9 3.51-.86.5-5.03-2.98-.01 1.42L17.16 18l-.78.53-3.03-1.79-.01 1.41 1.85 1.1-1.8 1.07-11.36-6.73 11.38-6.82zM1.93 15.09l11.4 6.77.02 1.04-7.94-4.71-.02 1.4 7.98 4.8.02 1.06-7.97-4.72-.01 1.4 8.02 4.82.04.02 8.15-4.86-.02-5.16 3.42-2.03v10l-11.55 6.85L1.93 24.9V15.1z" fill="#F0C52E"/></g><defs><clipPath id="clip0"><path fill="#fff" d="M0 0h26.94v34H0z"/></clipPath></defs></svg>