<svg width="107" height="65" fill="none" xmlns="http://www.w3.org/2000/svg"><g clip-path="url(#clip0)" fill="#363636"><path d="M98.97 4.07a10.4 10.4 0 011.2 4.82V30c0 4.62-3.09 8.53-7.24 9.9-1.33 4-3.78 7.86-8.05 10.44-8.68 5.23-31.12 4.83-31.2 4.83-.08 0-22.51.4-31.19-4.83a18.73 18.73 0 01-8.04-10.28 10.5 10.5 0 01-7.76-10.06V8.9c0-1.69.43-3.28 1.14-4.69C4.17 5.1 0 6.92 0 10.43v29.99c0 10.25 11.84 24.43 53.66 24.43 41.82 0 53.65-14.18 53.65-24.43V10.43c0-3.68-4.57-5.49-8.34-6.36z"/><path d="M20.56 38.46h65.52c5.57 0 10.08-4.51 10.08-10.08V9.93c0-5.56-4.51-10.07-10.08-10.07H20.56A10.08 10.08 0 0010.5 9.93v18.45c0 5.57 4.5 10.08 10.07 10.08zm63.13-29a1.57 1.57 0 110 3.15 1.57 1.57 0 010-3.14zm0 4.05a1.57 1.57 0 110 3.13 1.57 1.57 0 010-3.13zm0 4.04a1.57 1.57 0 110 3.13 1.57 1.57 0 010-3.13zm0 3.82a1.57 1.57 0 110 3.14 1.57 1.57 0 010-3.14zm0 4.04a1.57 1.57 0 110 3.14 1.57 1.57 0 010-3.14zM79.66 9.47a1.57 1.57 0 110 3.13 1.57 1.57 0 010-3.13zm0 15.94a1.57 1.57 0 110 3.14 1.57 1.57 0 010-3.14zM75.62 9.47a1.57 1.57 0 110 3.14 1.57 1.57 0 010-3.14zm0 4.04a1.57 1.57 0 110 3.14 1.57 1.57 0 010-3.14zm0 4.04a1.57 1.57 0 110 3.13 1.57 1.57 0 010-3.13zm0 3.82a1.57 1.57 0 110 3.14 1.57 1.57 0 010-3.14zm0 4.04a1.57 1.57 0 110 3.14 1.57 1.57 0 010-3.14zM67.96 9.47a1.57 1.57 0 110 3.13 1.57 1.57 0 010-3.13zm0 8.08a1.57 1.57 0 110 3.13 1.57 1.57 0 010-3.13zm0 3.88a1.57 1.57 0 110 3.13 1.57 1.57 0 010-3.13zm0 3.98a1.57 1.57 0 110 3.14 1.57 1.57 0 010-3.14zM63.94 9.47a1.57 1.57 0 110 3.14 1.57 1.57 0 010-3.14zm0 8.08a1.57 1.57 0 110 3.13 1.57 1.57 0 010-3.13zm0 7.86a1.57 1.57 0 110 3.14 1.57 1.57 0 010-3.14zM59.89 9.47a1.57 1.57 0 110 3.14 1.57 1.57 0 010-3.14zm0 4.04a1.57 1.57 0 110 3.14 1.57 1.57 0 010-3.14zm0 4.04a1.57 1.57 0 110 3.14 1.57 1.57 0 010-3.14zm0 7.86a1.57 1.57 0 110 3.14 1.57 1.57 0 010-3.14zm-8.3-15.94a1.57 1.57 0 110 3.14 1.57 1.57 0 010-3.14zm0 4.04a1.57 1.57 0 110 3.13 1.57 1.57 0 010-3.13zm0 4.04a1.57 1.57 0 110 3.13 1.57 1.57 0 010-3.13zm0 3.88a1.57 1.57 0 11.01 3.13 1.57 1.57 0 010-3.13zm0 3.98a1.57 1.57 0 110 3.14 1.57 1.57 0 010-3.14zm-4.03-11.9a1.57 1.57 0 110 3.13 1.57 1.57 0 010-3.13zm-8.5-.21a1.57 1.57 0 110 3.14 1.57 1.57 0 010-3.15zm0 4.03a1.57 1.57 0 110 3.14 1.57 1.57 0 010-3.14zm-4.04-8.08a1.57 1.57 0 110 3.14 1.57 1.57 0 010-3.14zm0 4.04a1.57 1.57 0 110 3.14 1.57 1.57 0 010-3.13zm0 4.04a1.57 1.57 0 110 3.14 1.57 1.57 0 010-3.14zm0 4.04a1.57 1.57 0 110 3.14 1.57 1.57 0 010-3.14zm-4.26-8.08a1.57 1.57 0 110 3.14 1.57 1.57 0 010-3.13zm0 4.04a1.57 1.57 0 110 3.14 1.57 1.57 0 010-3.14zm0 4.04a1.57 1.57 0 110 3.14 1.57 1.57 0 010-3.14zm0 4.04a1.57 1.57 0 110 3.14 1.57 1.57 0 010-3.14zM26.3 9.25a1.57 1.57 0 110 3.15 1.57 1.57 0 010-3.15zm0 4.04a1.57 1.57 0 110 3.15 1.57 1.57 0 010-3.15zm0 4.04a1.57 1.57 0 110 3.14 1.57 1.57 0 010-3.14zm0 4.04a1.57 1.57 0 110 3.15 1.57 1.57 0 010-3.15zm-4.04-8.08a1.57 1.57 0 110 3.15 1.57 1.57 0 010-3.15zm0 4.04a1.57 1.57 0 110 3.14 1.57 1.57 0 010-3.14z"/></g><defs><clipPath id="clip0"><path fill="#fff" d="M0 0h107v65H0z"/></clipPath></defs></svg>