<svg width="32" height="32" fill="none" xmlns="http://www.w3.org/2000/svg"><path d="M20.8 16a4.8 4.8 0 11-9.52-.8H9.6v6.4c0 .44.36.8.8.8h11.2a.8.8 0 00.8-.8v-6.4h-1.68c.05.26.08.53.08.8zM16 19.2a3.2 3.2 0 100-6.4 3.2 3.2 0 000 6.4zm3.84-6.56h1.92a.48.48 0 00.48-.48v-1.92a.48.48 0 00-.48-.48h-1.92a.48.48 0 00-.48.48v1.92c0 .26.22.48.48.48zM16 .64a15.36 15.36 0 100 30.72A15.36 15.36 0 0016 .64zm8 21.58c0 .98-.8 1.78-1.78 1.78H9.78C8.8 24 8 23.2 8 22.22V9.78C8 8.8 8.8 8 9.78 8h12.44C23.2 8 24 8.8 24 9.78v12.44z" fill="#fff" fill-opacity=".6"/></svg>